# xmcd
#
# Track frame offsets:
#	150
#	9812
#	21048
#	33649
#	46972
#	56059
#	66340
#	77447
#	87748
#	100302
#	112810
#	123817
#	134292
#	146868
#	158013
#	166950
#	176867
#	187455
#	200296
#	210371
#	222247
#	234347
#	245429
#	255424
#	268257
#	277837
#	287137
#	301059
#	310510
#	323781
#
# Disc length: 4462
#
# Revision: 1
# Processed by: cddbd v1.5.1PL0 Copyright (c) Steve Scherf et al.
# Submitted via: EZCDDA 4.3.3.2
# Normalized: r0:TDELIM( - )
#
DISCID=a5116c1e
DTITLE=Various Artist - Doo Wop For Angels  Vol II
DYEAR=1900
DGENRE=
TTITLE0=Kingsmen - Whisper Guardian Angel
TTITLE1=Co-Eds - I Love An Angel
TTITLE2=Penguins - You're An Angel
TTITLE3=Four Fellows - Angels Say
TTITLE4=Del Vikings - An Angel Up In Heaven
TTITLE5=Isley Brothers - Angels Cried
TTITLE6=Pips - You're An Angel
TTITLE7=Dovers - My Angel
TTITLE8=Continentals - You're An Angel
TTITLE9=Gales - Guiding Angel
TTITLE10=Chanters - Angel Darling
TTITLE11=Bertha Tillman - Oh My Angel
TTITLE12=Francine Brown - Angels In The Sky
TTITLE13=Anita May - Tarnished Angel
TTITLE14=Insoirations - Angel In Disguise
TTITLE15=Shells - What's In An Angels Eyes
TTITLE16=Teenchords - Please Tell The Angels
TTITLE17=Charles Brown - Angel Baby
TTITLE18=Summits - He's An Angel
TTITLE19=Interiors - Darling Little Angel
TTITLE20=Kodaks - Guardian Angel
TTITLE21=Dellchords - I Pray To The Angels
TTITLE22=Boss Tones - Wings Of An Angel
TTITLE23=Four Fellows - Fallen Angel
TTITLE24=Muffin Twins - The Voice Of An Angel
TTITLE25=Cosmos - Angel Angel
TTITLE26=Donald Woods - Death Of An Angel
TTITLE27=Rockin Dukes - Angel And A Rose
TTITLE28=Penguins - Earth Angel
TTITLE29=Chariots - Gloria My Angel
EXTD=
EXTT0=
EXTT1=
EXTT2=
EXTT3=
EXTT4=
EXTT5=
EXTT6=
EXTT7=
EXTT8=
EXTT9=
EXTT10=
EXTT11=
EXTT12=
EXTT13=
EXTT14=
EXTT15=
EXTT16=
EXTT17=
EXTT18=
EXTT19=
EXTT20=
EXTT21=
EXTT22=
EXTT23=
EXTT24=
EXTT25=
EXTT26=
EXTT27=
EXTT28=
EXTT29=
PLAYORDER=
